<svg xmlns="http://www.w3.org/2000/svg" xmlns:xlink="http://www.w3.org/1999/xlink" width="480" height="296" viewBox="0 0 360 222">
    <defs>
        <symbol overflow="visible" id="a">
            <path style="stroke:none" d="M5.29-2.191H.55v-.82h4.74Zm0 0"/>
        </symbol>
        <symbol overflow="visible" id="c">
            <path style="stroke:none" d="m7.73-5.191-.148.734H6.289a25.61 25.61 0 0 0-.164.7c-.055.237-.102.472-.14.702a7.514 7.514 0 0 0-.102.707 5.459 5.459 0 0 0-.04.711c-.003.32.052.61.165.871.11.27.262.524.457.766H5.406a2.725 2.725 0 0 1-.34-.797 3.114 3.114 0 0 1-.105-.863A4.768 4.768 0 0 1 5-2.367c.023-.235.063-.465.11-.7.042-.23.09-.464.144-.695l.152-.695h-2.14a48.67 48.67 0 0 0-.215 1.16c-.074.402-.164.797-.27 1.188-.113.39-.254.77-.418 1.129a4.008 4.008 0 0 1-.64.98H.586c.117-.125.23-.25.344-.375.113-.125.222-.254.324-.39.187-.258.34-.54.46-.844.118-.301.216-.614.298-.934.078-.32.148-.64.203-.965.055-.32.11-.637.168-.949H1.109l.145-.734Zm0 0"/>
        </symbol>
        <symbol overflow="visible" id="b">
            <path style="stroke:none" d="M5.035-.844V0H.305C.297-.21.328-.414.406-.61c.117-.32.313-.636.578-.953.266-.308.649-.671 1.149-1.085.777-.633 1.3-1.137 1.578-1.512.27-.375.406-.727.41-1.059a1.21 1.21 0 0 0-.375-.883c-.25-.234-.574-.355-.973-.359-.425.004-.761.133-1.015.383-.258.258-.387.61-.387 1.055L.47-5.117c.062-.672.293-1.188.699-1.54.398-.35.941-.527 1.625-.53.684.003 1.227.195 1.629.57.398.383.598.855.601 1.418-.003.289-.062.57-.175.844-.121.28-.313.57-.582.875-.274.304-.727.726-1.356 1.257-.531.446-.87.746-1.015.903-.153.16-.274.316-.372.476Zm0 0"/>
        </symbol>
        <symbol overflow="visible" id="d">
            <path style="stroke:none" d="M3.727 0h-.88v-5.602c-.21.204-.488.407-.831.61a5.526 5.526 0 0 1-.926.453v-.852c.492-.23.922-.507 1.289-.84.367-.324.625-.644.781-.957h.567Zm0 0"/>
        </symbol>
    </defs>
    <path style="fill:none;stroke-width:1.6;stroke-linecap:square;stroke-linejoin:miter;stroke:#5e81b5;stroke-opacity:1;stroke-miterlimit:3.25" d="m10.484 110.55.106-.378.105-.383.211-.762.418-1.527.84-3.05 1.676-6.083 3.355-12 7.278-24.52.21-.671.215-.668.422-1.328.852-2.617 1.695-5.075.11-.308.316-.926.426-1.219.847-2.39 1.7-4.598.105-.274.102-.27.207-.542.418-1.07.832-2.09 1.664-3.977.21-.476.208-.473.418-.93.832-1.804 1.664-3.387.226-.438.223-.43.453-.84.902-1.612.114-.196.34-.574.449-.746.906-1.418.113-.172.11-.168.226-.332.453-.648.903-1.22.113-.144.113-.14.227-.285.45-.543.901-1.016.422-.437.422-.415.106-.097.105-.102.211-.191.422-.367.105-.09.317-.258.422-.32.105-.078.106-.075.207-.148.422-.274.105-.066.316-.187.422-.227.106-.055.316-.152.422-.18.105-.043.106-.039.21-.074.106-.039.106-.031.21-.067.106-.027.106-.031.105-.028.102-.023.21-.047.212-.039.117-.02.113-.02.227-.03.117-.012.113-.012.227-.015.113-.004.117-.004.113-.004h.114l.113.004.117.004.113.004.34.023.117.012.34.047.118.02.113.019.226.047.118.027.226.055.113.03.23.071.114.035.113.04.23.081.227.086.227.098.117.047.34.164.457.238.117.063.114.066.226.137.457.293.113.078.118.078.226.164.457.352.114.09.109.09.226.187.446.394.898.868.113.117.11.117.226.238.45.5.894 1.075.227.28.222.294.45.597.894 1.274 1.793 2.844.106.175.105.18.207.363.418.739.84 1.535 1.672 3.316.105.219.102.219.21.437.419.899.836 1.847 1.671 3.918.114.274.113.277.227.559.457 1.129.906 2.32 1.812 4.87 3.63 10.575 6.773 22.145 6.64 23.613 7.204 26.121 6.722 23.273.117.38.114.374.226.746.457 1.493.91 2.941 1.82 5.719.114.347.117.352.227.695.453 1.375.914 2.711 1.82 5.223.114.309.109.312.223.617.449 1.219.894 2.387 1.79 4.554.109.274.113.273.223.54.449 1.07.894 2.078 1.786 3.902.21.43.208.43.418.84.832 1.624.21.39.207.392.418.761.832 1.461.211.352.207.347.418.68.832 1.297 1.668 2.34.227.289.227.285.453.547.906 1.02.113.12.113.118.223.234.453.442.907.808.226.188.227.18.449.335.113.082.113.078.227.153.453.285.113.066.454.25.113.059.222.11.114.054.113.05.227.098.453.176.105.04.106.034.21.067.212.062.21.055.317.07.316.059.211.031.317.035.21.016.317.012h.316l.11-.004.105-.004.106-.008.105-.004.106-.012.105-.007.106-.016.105-.012.211-.031.316-.059.211-.046.211-.051.106-.031.105-.028.211-.066.106-.031.105-.04.211-.074.105-.039.106-.043.21-.09.106-.043.106-.05.21-.098.423-.219.113-.062.117-.067.227-.133.457-.289.117-.078.113-.078.227-.16.46-.348.227-.18.23-.19.458-.4.914-.878.113-.117.113-.121.23-.243.458-.507.914-1.094.117-.145.113-.144.227-.297.46-.613.915-1.301.11-.168.113-.168.226-.34.45-.703.898-1.477 1.797-3.234.11-.215.112-.215.223-.437.45-.89.898-1.848 1.797-3.954.21-.484.211-.488.418-.988.836-2.032 1.676-4.27 3.352-9.3.226-.664.23-.672.454-1.348.906-2.746 1.82-5.668 3.633-11.953 6.785-23.875 6.653-24.156 7.218-25.371.106-.352.105-.355.207-.707.422-1.406.844-2.786 1.684-5.441 3.367-10.313.113-.336.113-.332.23-.664.454-1.316.914-2.578 1.824-4.934.114-.3.117-.297.226-.59.457-1.168.91-2.274 1.825-4.3.113-.25.113-.254.223-.496.45-.98.894-1.9 1.793-3.527.109-.207.113-.207.223-.41.45-.8.894-1.536 1.793-2.773.105-.153.102-.148.21-.293.419-.57.836-1.07.105-.13.102-.128.21-.25.418-.48.836-.9.102-.105.105-.101.207-.207.418-.391.211-.188.207-.183.418-.348.211-.164.207-.16.418-.3.211-.141.207-.137.418-.258.114-.066.113-.063.226-.12.227-.118.226-.106.114-.054.113-.051.227-.094.453-.168.113-.039.34-.105.113-.032.34-.082.227-.046.34-.06.226-.03.113-.012.114-.008.113-.012.113-.007.34-.012h.113l.113.004h.114l.113.008.113.004.114.007.34.036.226.03.227.04.226.047.34.082.227.062.34.106.113.039.226.082.211.086.211.09.422.195.21.11.212.113.426.246.105.062.106.067.21.136.422.293.848.653.211.18.21.183.423.387.847.84.106.109.105.113.211.23.422.477.848 1.024.101.128.106.133.207.27.414.554.828 1.176 1.66 2.602.102.172.105.175.207.352.414.723.829 1.504 1.66 3.242.113.23.113.235.223.468.45.953.901 1.977 1.797 4.203 3.602 9.356.101.293.106.289.21.586.419 1.183.84 2.41 1.68 4.989 3.359 10.582 7.277 25.015 6.8 24.621 6.665 23.82 7.226 23.813.106.324.105.32.211.645.422 1.278.844 2.511 1.688 4.852.105.293.105.297.211.586.422 1.16.844 2.273 1.688 4.352.113.285.113.281.23.563.458 1.113.91 2.156 1.828 4.059.117.242.34.715.457.934.914 1.8 1.828 3.313.227.383.222.37.45.731.898 1.387.11.164.113.168.226.324.445.629.899 1.191.226.282.223.273.45.531.894.985.113.117.336.336.45.43.898.777.105.082.102.082.21.16.419.305.105.074.106.07.207.137.418.258.105.062.106.059.21.113.102.055.106.055.21.101.102.051.316.14.418.165.106.035.105.039.207.066.211.063.207.054.106.028.21.047.102.023.211.04.211.03.102.016.21.024.106.007.102.008.21.016.106.004h.418l.106-.004.101-.004.211-.016.113-.008.114-.011.34-.047.226-.04.34-.07.23-.058.227-.063.34-.105.113-.04.34-.128.113-.047.227-.098.113-.05.34-.164.453-.243.227-.132.23-.137.453-.297.113-.078.34-.246.453-.352.227-.187.227-.192.453-.402.91-.89.105-.11.317-.34.425-.476.848-1.016.106-.133.316-.41.422-.563.848-1.195.105-.156.11-.16.21-.317.422-.652.848-1.371 1.695-2.996.106-.196.101-.195.207-.394.418-.805.828-1.668 1.664-3.559.102-.234.105-.234.207-.47.414-.956.833-1.961 1.66-4.129.113-.293.113-.29.227-.585.449-1.184.902-2.425 1.801-5.067 3.606-10.898 6.726-22.504.117-.41.118-.414.234-.825.469-1.656.941-3.332 1.875-6.73.117-.426.117-.422.235-.848.473-1.699.937-3.402.234-.852.235-.855.469-1.707.117-.426.117-.43.234-.851.117-.43.118-.426.12-.426.118-.43"/>
    <path style="fill:none;stroke-width:.2;stroke-linecap:butt;stroke-linejoin:miter;stroke:#666;stroke-opacity:1;stroke-miterlimit:3.25" d="M10.484 110.55v-4"/>
    <use xlink:href="#a" y="123.552" style="fill:#666;fill-opacity:1"/>
    <use xlink:href="#b" x="5.84" y="123.552" style="fill:#666;fill-opacity:1"/>
    <use xlink:href="#c" x="13.242" y="123.552" style="fill:#666;fill-opacity:1"/>
    <path style="fill:none;stroke-width:.2;stroke-linecap:butt;stroke-linejoin:miter;stroke:#666;stroke-opacity:1;stroke-miterlimit:3.25" d="M95.957 110.55v-4"/>
    <use xlink:href="#a" x="89.174" y="123.552" style="fill:#666;fill-opacity:1"/>
    <use xlink:href="#c" x="95.014" y="123.552" style="fill:#666;fill-opacity:1"/>
    <path style="fill:none;stroke-width:.2;stroke-linecap:butt;stroke-linejoin:miter;stroke:#666;stroke-opacity:1;stroke-miterlimit:3.25" d="M181.43 110.55v-4M266.906 110.55v-4"/>
    <use xlink:href="#c" x="263.04" y="123.552" style="fill:#666;fill-opacity:1"/>
    <path style="fill:none;stroke-width:.2;stroke-linecap:butt;stroke-linejoin:miter;stroke:#666;stroke-opacity:1;stroke-miterlimit:3.25" d="M352.379 110.55v-4"/>
    <use xlink:href="#b" x="344.811" y="123.552" style="fill:#666;fill-opacity:1"/>
    <use xlink:href="#c" x="352.214" y="123.552" style="fill:#666;fill-opacity:1"/>
    <path style="fill:none;stroke-width:.2;stroke-linecap:butt;stroke-linejoin:miter;stroke:#666;stroke-opacity:1;stroke-miterlimit:3.25" d="M3.363 110.55H359.5M181.43 209.598h4"/>
    <use xlink:href="#a" x="167.03" y="213.099" style="fill:#666;fill-opacity:1"/>
    <use xlink:href="#d" x="172.87" y="213.099" style="fill:#666;fill-opacity:1"/>
    <path style="fill:none;stroke-width:.2;stroke-linecap:butt;stroke-linejoin:miter;stroke:#666;stroke-opacity:1;stroke-miterlimit:3.25" d="M181.43 110.55h4M181.43 11.504h4"/>
    <use xlink:href="#d" x="172.87" y="15.005" style="fill:#666;fill-opacity:1"/>
    <path style="fill:none;stroke-width:.2;stroke-linecap:butt;stroke-linejoin:miter;stroke:#666;stroke-opacity:1;stroke-miterlimit:3.25" d="M181.43 220.605V.5"/>
</svg>
